<svg xmlns="http://www.w3.org/2000/svg" xmlns:xlink="http://www.w3.org/1999/xlink" width="130" height="200" version="1.1" viewBox="0 0 130 200"><title>veremax</title><desc>a video theremin using OpenPose</desc><g id="Page-5" fill="none" fill-rule="evenodd" stroke="none" stroke-width="1"><g id="note" fill-rule="nonzero" stroke-width="8" transform="translate(6.000000, 20.000000)"><g id="pink" stroke="#FF767C" transform="translate(75.631704, 93.675141) rotate(-7.000000) translate(-75.631704, -93.675141) translate(25.150726, 12.489377)"><ellipse id="Oval" cx="42.035" cy="133.209" fill="#FF767C" rx="32.878" ry="18.228" transform="translate(44.235149, 136.708530) rotate(-35.000000) translate(-42.035149, -133.208530)"/><path id="Path" fill="#FF767C" d="M5.82085399,6.25152518 L16.8073087,26.5603231 L60.1187857,29.7299187 C77.9144318,31.0322294 94.3059059,20.0352254 99.8491793,3.07488486 L98.1961656,3.75029522 C83.0963382,9.91998385 66.7164969,12.3022702 50.4847797,10.6894458 L5.82085399,6.25152518 Z" transform="translate(52.835017, 16.454592) rotate(-3.000000) translate(-52.835017, -16.454592)"/><path id="Line-2" stroke-linecap="round" d="M5.27718343,9.80284376 L72.8186375,120.483933"/></g><g id="outline" stroke="#000" transform="translate(67.929317, 92.219548) rotate(-10.000000) translate(-67.929317, -92.219548) translate(14.429317, 8.219548)"><ellipse id="Oval" cx="37.943" cy="134.186" rx="36.878" ry="22.228" transform="translate(40.542503, 136.185761) rotate(-35.000000) translate(-37.942503, -134.185761)"/><path id="Path" d="M5.08018127,1.3911312 L57.2438002,6.57424027 C72.8262487,8.12255175 88.5508963,5.83555682 103.046731,-0.0873442605 L112.699457,-4.03138398 L110.014775,4.18273963 C103.900294,22.8907602 85.8197589,35.0209516 66.1903587,33.5844442 L20.6946774,30.2550054 L5.08018127,1.3911312 Z" transform="translate(59.198535, 16.319786) rotate(-3.000000) translate(-59.198535, -16.319786)"/><path id="Line-2" stroke-linecap="round" d="M6.41227821,8.13893873 L72.9012659,118.649227"/></g></g></g></svg>